<?xml version="1.0" encoding="UTF-8"?>
<!DOCTYPE svg PUBLIC "-//W3C//DTD SVG 1.1//EN" "http://www.w3.org/Graphics/SVG/1.1/DTD/svg11.dtd">
<!-- Creator: CorelDRAW -->
<svg xmlns="http://www.w3.org/2000/svg" xml:space="preserve" width="1772px" height="1772px" version="1.1" style="shape-rendering:geometricPrecision; text-rendering:geometricPrecision; image-rendering:optimizeQuality; fill-rule:evenodd; clip-rule:evenodd"
viewBox="0 0 1772 1772"
 xmlns:xlink="http://www.w3.org/1999/xlink"
 xmlns:xodm="http://www.corel.com/coreldraw/odm/2003">
 <defs>
  <style type="text/css">
   <![CDATA[
    .str1 {stroke:#373435;stroke-width:2.08;stroke-miterlimit:22.9256}
    .str4 {stroke:#366C7D;stroke-width:2.08;stroke-miterlimit:22.9256}
    .str3 {stroke:#EBF3F5;stroke-width:2.08;stroke-miterlimit:22.9256}
    .str2 {stroke:white;stroke-width:2.08;stroke-miterlimit:22.9256}
    .str0 {stroke:#373435;stroke-width:0.9;stroke-miterlimit:22.9256}
    .fil1 {fill:#F0F0F0}
    .fil0 {fill:#136F86}
    .fil3 {fill:#366C7D}
    .fil4 {fill:#8AA5AD}
    .fil2 {fill:white}
   ]]>
  </style>
 </defs>
 <g id="Capa_x0020_1">
  <metadata id="CorelCorpID_0Corel-Layer"/>
  <rect class="fil0 str0" x="-3753.13" y="-359.93" width="1772" height="1772"/>
  <polygon class="fil1 str0" points="-3503.49,540.04 -3129.13,772.54 -3150.74,812.81 -3525.11,580.31 -3589.95,540.04 -3525.11,499.77 -3150.74,267.27 -3129.13,307.54 "/>
  <polygon class="fil1 str0" points="-2230.76,540.04 -2605.13,307.54 -2583.52,267.27 -2209.15,499.77 -2144.31,540.04 -2209.15,580.31 -2583.52,812.81 -2605.13,772.54 "/>
  <rect class="fil1 str0" transform="matrix(-0.38201 0.711739 -1.5131 -0.812123 -2631.6 163.676)" width="1096.84" height="34.4"/>
  <polygon class="fil1 str1" points="-3753.13,267.27 -3237.2,267.27 -3332.3,326.34 -3753.13,326.34 "/>
  <polygon class="fil1 str1" points="-3753.13,812.81 -3237.2,812.81 -3332.3,753.74 -3753.13,753.74 "/>
  <polygon class="fil1 str1" points="-1981.13,267.27 -2497.06,267.27 -2401.95,326.34 -1981.13,326.34 "/>
  <polygon class="fil1 str1" points="-1981.13,812.81 -2497.06,812.81 -2401.95,753.74 -1981.13,753.74 "/>
  <g id="_1914555274448">
   <polygon class="fil2 str2" points="790.96,3023.65 1226.92,3023.65 1155.54,3088.78 790.96,3088.78 "/>
   <polygon class="fil2 str2" points="1226.92,3023.65 941.41,3284.16 1226.92,3544.67 1226.92,3452.57 1042.35,3284.16 1226.92,3115.76 "/>
   <polygon class="fil2 str2" points="790.96,3479.55 1155.54,3479.54 1226.92,3544.67 790.96,3544.67 "/>
   <polygon class="fil2 str2" points="1664.51,2919.28 1744.29,2919.28 1358.79,3623.78 1279.02,3623.78 "/>
   <polygon class="fil2 str2" points="1782.56,3023.65 2068.07,3284.16 1782.56,3544.67 1782.56,3452.57 1967.13,3284.16 1782.56,3115.76 "/>
   <polygon class="fil2 str2" points="2218.52,3023.65 1782.56,3023.65 1853.94,3088.78 2218.52,3088.78 "/>
   <polygon class="fil2 str2" points="2218.52,3479.55 1853.94,3479.54 1782.56,3544.67 2218.52,3544.67 "/>
  </g>
  <rect class="fil3 str2" x="-3711.93" y="1773.22" width="1772" height="1772"/>
  <rect class="fil3 str3" x="-3682.38" y="3658.01" width="1772" height="1772"/>
  <rect class="fil3 str4" x="-4347.84" y="5805.81" width="1772" height="1772"/>
  <polygon class="fil4 str4" points="-4542.78,6337.41 -3806.69,6337.41 -3895.29,6426.01 -4542.78,6426.01 "/>
  <polygon class="fil4 str4" points="-4558.47,6957.61 -3895.29,6957.61 -3806.69,7046.21 -4558.47,7046.21 "/>
  <polygon class="fil2 str2" points="-3263.52,6195.41 -3164.49,6195.41 -3643,7153.83 -3742.03,7153.83 "/>
  <polygon class="fil4 str4" points="-2304.65,6337.41 -3116.99,6337.41 -3028.39,6426.01 -2304.65,6426.01 "/>
  <polygon class="fil4 str4" points="-2301.16,6957.61 -3028.39,6957.61 -3116.99,7046.21 -2301.16,7046.21 "/>
  <polygon class="fil2 str2" points="-3806.69,6337.41 -4161.09,6691.81 -3806.69,7046.21 -3806.69,6920.91 -4035.79,6691.81 -3806.69,6462.71 "/>
  <polygon class="fil2 str2" points="-3116.99,6337.41 -2762.59,6691.81 -3116.99,7046.21 -3116.99,6920.91 -2887.89,6691.81 -3116.99,6462.71 "/>
  <g id="_1914555271280">
   <rect class="fil3 str4" x="-0.18" y="0.17" width="1772" height="1772"/>
   <polygon class="fil4 str4" points="-0.18,531.77 540.98,531.77 452.38,620.37 -0.18,620.37 "/>
   <polygon class="fil4 str4" points="-0.18,1151.97 452.38,1151.97 540.98,1240.57 -0.18,1240.57 "/>
   <polygon class="fil2 str2" points="1084.15,389.78 1183.17,389.78 704.67,1348.19 605.64,1348.19 "/>
   <polygon class="fil4 str4" points="1771.83,531.77 1230.67,531.77 1319.28,620.37 1771.83,620.37 "/>
   <polygon class="fil4 str4" points="1771.83,1151.97 1319.27,1151.97 1230.67,1240.57 1771.83,1240.57 "/>
   <polygon class="fil2 str2" points="540.98,531.77 186.58,886.17 540.98,1240.57 540.98,1115.27 311.88,886.17 540.98,657.07 "/>
   <polygon class="fil2 str2" points="1230.67,531.77 1585.07,886.17 1230.67,1240.57 1230.68,1115.27 1459.78,886.17 1230.67,657.07 "/>
  </g>
 </g>
</svg>
